<?xml version="1.0" encoding="UTF-8"?><svg id="Layer_1" xmlns="http://www.w3.org/2000/svg" viewBox="0 0 250 250"><defs><style>.cls-1{fill:#ffd04e;}</style></defs><path class="cls-1" d="M125,39.1c-47.44,0-85.91,38.46-85.91,85.91s38.46,85.9,85.91,85.9,85.9-38.46,85.9-85.9S172.44,39.1,125,39.1Zm0,161.5c-41.68,0-75.59-33.91-75.59-75.59S83.32,49.41,125,49.41s75.59,33.91,75.59,75.59-33.91,75.59-75.59,75.59Z"/><path class="cls-1" d="M56.97,56.97l-9.72-9.72c-42.87,42.87-42.87,112.64,0,155.5l9.72-9.72c-37.51-37.52-37.51-98.55,0-136.07h0Z"/><path class="cls-1" d="M202.74,47.25l-9.72,9.72c37.51,37.51,37.51,98.56,0,136.06l9.72,9.72c42.88-42.87,42.88-112.63,0-155.5h0Z"/><path class="cls-1" d="M169.66,87.11c-1.32-1.32-3.46-1.32-4.78,0l-11.86,11.86c-1.47-1.31-3.01-2.55-4.66-3.64v-21.53c0-1.84-1.49-3.33-3.34-3.33h-40.04c-1.84,0-3.34,1.49-3.34,3.33v21.53c-1.65,1.1-3.19,2.33-4.66,3.65l-11.86-11.86c-1.32-1.32-3.46-1.32-4.78,0s-1.32,3.46,0,4.78l11.98,11.98c-5.96,7.28-9.59,16.53-9.59,26.65,0,10.76,4.07,20.55,10.71,28.02l-13.1,13.1c-1.32,1.32-1.32,3.46,0,4.78,.66,.66,1.52,.99,2.39,.99s1.73-.33,2.39-.99l13.17-13.17c7.29,5.96,16.58,9.54,26.7,9.54s19.42-3.59,26.7-9.54l13.17,13.17c.66,.66,1.52,.99,2.39,.99s1.73-.33,2.39-.99c1.32-1.32,1.32-3.46,0-4.78l-13.1-13.1c6.64-7.47,10.71-17.27,10.71-28.02,0-10.12-3.64-19.37-9.59-26.65l11.98-11.98c1.33-1.32,1.33-3.46,0-4.78h0Zm-61.35-9.98h33.37v14.57c-5.12-2.21-10.76-3.45-16.69-3.45s-11.56,1.24-16.69,3.45v-14.57Zm16.69,17.8c8.92,0,17.05,3.32,23.3,8.75l-23.3,23.31-23.3-23.3c6.25-5.44,14.39-8.76,23.3-8.76h0Zm-26.84,58.9c-5.43-6.25-8.75-14.39-8.75-23.3,0-8.28,2.87-15.89,7.63-21.94l23.19,23.19-22.06,22.06Zm26.84,12.29c-8.28,0-15.89-2.87-21.94-7.63l21.94-21.94,21.94,21.94c-6.05,4.76-13.66,7.63-21.94,7.63Zm35.59-35.59c0,8.91-3.32,17.05-8.75,23.3l-22.06-22.06,23.19-23.19c4.76,6.05,7.62,13.67,7.62,21.94Z"/></svg>