<?xml version="1.0" encoding="UTF-8"?><svg id="Layer_1" xmlns="http://www.w3.org/2000/svg" viewBox="0 0 250 250"><defs><style>.cls-1{fill:#be1622;}</style></defs><path class="cls-1" d="M231.53,63.43h-19.83v-20.98c0-1.84-1.38-3.23-3.23-3.23h-54.88c-1.84,0-3.23,1.38-3.23,3.23v20.98h-51.65v-20.99c0-1.84-1.38-3.23-3.23-3.23H40.6c-1.84,0-3.23,1.38-3.23,3.23v20.98H18.47c-3.69,0-6.46,3-6.46,6.45V204.32c0,3.69,3,6.46,6.46,6.46H231.53c3.69,0,6.46-3,6.46-6.46V69.89c0-3.69-3-6.46-6.46-6.46h0Zm-6.46,134.2H24.92V76.35H225.07v121.29Z"/><path class="cls-1" d="M65.28,135.84h4.15v-19.83h20.29v-4.15h-20.29v-18.91h-4.15v18.91h-20.29v4.15h20.29v19.83Z"/><path class="cls-1" d="M165.12,112.32h38.05v4.38h-38.05v-4.38Z"/></svg>