<?xml version="1.0" encoding="UTF-8"?><svg id="Layer_1" xmlns="http://www.w3.org/2000/svg" viewBox="0 0 250 250"><defs><style>.cls-1{fill:#be1622;}</style></defs><path class="cls-1" d="M116.24,145.45c-2.53-2.99-6.43-4.59-10.34-4.59h-11.49c-4.13,0-7.81,1.84-10.57,4.83L28.24,209.78c-5.05,5.74-4.37,14.48,1.38,19.53,2.53,2.3,5.74,3.45,8.96,3.45,3.91,0,7.81-1.61,10.57-4.83l50.78-58.82,12.87,14.7c5.05,5.74,13.79,6.2,19.53,1.15,5.74-5.05,6.2-13.79,1.15-19.53l-17.23-19.99Z"/><path class="cls-1" d="M147.72,123.62c-2.3-5.74-8.73-8.5-14.48-6.2-5.74,2.3-8.5,8.73-6.2,14.48l39.06,98.11c1.84,4.37,5.97,6.89,10.34,6.89,1.38,0,2.76-.23,4.13-.69,5.74-2.3,8.5-8.73,6.2-14.48l-39.06-98.11Z"/><path class="cls-1" d="M214.58,85.02c-7.12-5.51-17.23-4.13-22.75,2.99l-30.79,40.21c-5.51,7.12-4.13,17.23,2.99,22.75,2.99,2.3,6.43,3.45,9.88,3.45,4.83,0,9.65-2.3,12.87-6.43l30.79-40.21c5.51-7.12,4.14-17.46-2.99-22.75h0Z"/><path class="cls-1" d="M199.65,76.06c14.02,0,25.5-11.49,25.5-25.5s-11.49-25.5-25.5-25.5-25.5,11.49-25.5,25.5,11.26,25.5,25.5,25.5Z"/><path class="cls-1" d="M113.72,111.44c27.11,0,49.17-22.06,49.17-49.17S140.83,13.1,113.72,13.1s-49.17,22.06-49.17,49.17,22.06,49.17,49.17,49.17Z"/></svg>