<?xml version="1.0" encoding="UTF-8"?><svg id="Layer_1" xmlns="http://www.w3.org/2000/svg" viewBox="0 0 250 250"><defs><style>.cls-1{fill:#ffd04e;}</style></defs><path class="cls-1" d="M21.26,67.71h27.44c2.74,0,5.26-1.37,6.86-3.43l14.64-20.36h112.53l15.1,20.36c1.6,2.06,4.12,3.43,6.63,3.43h23.33c4.57,0,8.46-3.66,8.46-8.46s-3.66-8.46-8.46-8.46h-18.98l-15.1-20.13c-1.6-2.29-4.12-3.43-6.86-3.43H65.63c-2.74,0-5.26,1.37-6.86,3.43l-14.64,20.36H21.26c-4.57,0-8.46,3.66-8.46,8.46,0,4.8,3.89,8.23,8.46,8.23h0Z"/><path class="cls-1" d="M229.39,74.8h-23.33c-2.74,0-5.26,1.14-6.63,3.43l-13.72,18.53-18.76-17.61c-.91-.91-1.83-1.14-3.2-1.14-1.14,0-2.29,.69-2.97,1.6l-14.41,18.07-16.92-19.21c-.91-.91-2.29-1.6-3.66-1.37-1.37,.23-2.52,.91-3.2,2.06l-10.29,17.84-18.53-20.58c-.69-.91-1.83-1.37-3.2-1.37-1.14,0-2.29,.46-3.2,1.37l-17.38,20.13-13.04-18.07c-1.6-2.29-4.12-3.43-6.86-3.43H22.63c-4.57,0-8.46,3.66-8.46,8.46s3.66,8.46,8.46,8.46h23.1l3.43,4.8v22.41c0,1.6,.91,2.97,2.06,3.66l72.96,40.48c.46,.23,.91,.23,1.37,.46-1.14,7.55-4.57,24.47-11.21,36.36-9.15,15.78,8.69,21.73,8.69,21.73,0,0,15.32,6.4,18.76-14.64,3.2-20.13-7.32-20.58-14.41-43.46,.46,0,.69,0,.91-.23l76.85-42.31c1.37-.69,2.06-2.06,2.06-3.66v-21.96l2.52-3.43h18.98c4.57,0,8.46-3.66,8.46-8.46,.46-5.26-3.2-8.92-7.77-8.92h0Z"/></svg>