<?xml version="1.0" encoding="UTF-8"?><svg id="Layer_1" xmlns="http://www.w3.org/2000/svg" viewBox="0 0 250 250"><defs><style>.cls-1{fill:#be1622;}</style></defs><path class="cls-1" d="M157.93,54.83h-13.17c5.03-5.03,7.9-11.74,7.9-19.4,0-15.33-12.45-27.54-27.54-27.54-15.09,0-27.78,12.45-27.78,27.54,0,7.67,3.11,14.37,7.9,19.4h-13.17c-2.16,0-4.07,1.92-4.07,4.07v69.46c0,2.16,1.92,4.07,4.07,4.07h1.44v57.24c0,2.16,1.92,4.07,4.07,4.07h7.67c-5.27,5.03-8.38,12.21-8.38,20.12,0,15.57,12.69,28.26,28.26,28.26,15.57,0,28.5-12.45,28.5-28.02,0-7.9-3.11-15.09-8.38-20.12h7.67c2.16,0,4.07-1.92,4.07-4.07v-57.24h.96c2.16,0,4.07-1.92,4.07-4.07V59.14c0-2.4-1.91-4.31-4.07-4.31h0Zm-52.45-19.4c0-10.78,8.62-19.4,19.4-19.4s19.4,8.62,19.4,19.4-8.62,19.4-19.4,19.4-19.4-8.62-19.4-19.4Zm-9.1,27.54h57.48v61.31h-57.48V62.97Zm48.86,151.13c0,11.02-9.1,20.12-20.12,20.12s-20.12-9.1-20.12-20.12,9.1-20.12,20.12-20.12,20.12,8.86,20.12,20.12Z"/></svg>