<?xml version="1.0" encoding="UTF-8"?><svg id="Layer_1" xmlns="http://www.w3.org/2000/svg" viewBox="0 0 250 250"><defs><style>.cls-1{fill:#ffd04e;}</style></defs><path class="cls-1" d="M157.26,61.81v-29.74c0-2.55-2.07-4.61-4.61-4.61h-55.3c-2.55,0-4.61,2.06-4.61,4.6v29.74c-15.72,10.47-26.12,28.34-26.12,48.6,0,32.18,26.18,58.37,58.37,58.37s58.37-26.19,58.37-58.37c0-20.27-10.39-38.13-26.11-48.6h0Zm-55.3-25.13h46.08v20.12c-7.07-3.05-14.86-4.76-23.04-4.76s-15.97,1.71-23.04,4.76v-20.12Zm23.04,122.89c-27.1,0-49.16-22.05-49.16-49.16s22.05-49.15,49.16-49.15,49.15,22.05,49.15,49.16-22.05,49.15-49.15,49.15Z"/><path class="cls-1" d="M232.52,105.8h-30.72c-2.55,0-4.61,2.06-4.61,4.61s2.06,4.61,4.61,4.61h30.72c2.54,0,4.61-2.06,4.61-4.61s-2.07-4.61-4.61-4.61Z"/><path class="cls-1" d="M179.3,60.71c1.18,0,2.36-.45,3.26-1.35l21.73-21.72c1.8-1.8,1.8-4.72,0-6.52-1.8-1.8-4.72-1.8-6.52,0l-21.73,21.72c-1.8,1.8-1.8,4.72,0,6.52,.9,.9,2.08,1.35,3.26,1.35h0Z"/><path class="cls-1" d="M67.43,59.36c.9,.9,2.08,1.35,3.26,1.35s2.36-.45,3.26-1.35c1.8-1.8,1.8-4.72,0-6.52l-21.72-21.72c-1.8-1.8-4.72-1.8-6.51,0-1.8,1.8-1.8,4.72,0,6.52l21.72,21.72Z"/><path class="cls-1" d="M52.8,110.41c0-2.54-2.06-4.61-4.61-4.61H17.47c-2.54,0-4.61,2.06-4.61,4.61s2.06,4.61,4.61,4.61h30.72c2.54,0,4.61-2.06,4.61-4.61h0Z"/><path class="cls-1" d="M67.43,161.46l-21.72,21.72c-1.8,1.8-1.8,4.72,0,6.52,.9,.9,2.08,1.35,3.26,1.35s2.36-.45,3.26-1.35l21.72-21.72c1.8-1.8,1.8-4.71,0-6.52-1.79-1.8-4.71-1.8-6.52,0h0Z"/><path class="cls-1" d="M125,182.6c-2.54,0-4.61,2.07-4.61,4.61v30.72c0,2.54,2.06,4.61,4.61,4.61s4.61-2.07,4.61-4.61v-30.72c0-2.54-2.06-4.61-4.61-4.61h0Z"/><path class="cls-1" d="M182.57,161.46c-1.8-1.8-4.72-1.8-6.52,0-1.8,1.8-1.8,4.72,0,6.52l21.72,21.73c.9,.9,2.08,1.35,3.26,1.35s2.36-.45,3.26-1.35c1.8-1.8,1.8-4.72,0-6.52l-21.72-21.73Z"/><path class="cls-1" d="M129.83,137.42c0,2.67-2.16,4.83-4.83,4.83s-4.83-2.16-4.83-4.83,2.16-4.83,4.83-4.83,4.83,2.16,4.83,4.83"/><path class="cls-1" d="M125,128.44c2.67,0,4.83-2.16,4.83-4.82v-38.64c0-2.67-2.16-4.83-4.83-4.83s-4.83,2.16-4.83,4.83v38.64c0,2.67,2.16,4.83,4.83,4.83Z"/></svg>