<?xml version="1.0" encoding="UTF-8"?><svg id="Layer_1" xmlns="http://www.w3.org/2000/svg" viewBox="0 0 250 250"><defs><style>.cls-1{fill:#ffd04e;}</style></defs><path class="cls-1" d="M241.73,144.24s-.24-4.77-5.48-12.87c0,0-3.58-3.1-5.48-8.58,0,0-2.62,10.73-6.2,13.83-3.58,3.1-2.39,10.97-2.39,10.97,0,0,0,6.91,8.82,9.06-.24,.24,12.4-.24,10.73-12.4h0Z"/><path class="cls-1" d="M232.91,119.68l-12.4-17.64-2.15-2.86-63.19,30.28-15.02-19.55-4.05-1.91h-27.66v-5.48h18.12c2.86,0,5.01-2.39,5.01-5.01,0-2.86-2.39-5.01-5.01-5.01h-48.88c-2.86,0-5.01,2.39-5.01,5.01,0,2.86,2.39,5.01,5.01,5.01h20.51v5.48h-25.51v-9.54c0-2.15-1.19-4.05-3.34-4.77l-41.01-16.21c-2.15-.72-4.53-.24-5.96,1.43l-13.11,16.21c-.95,1.19-1.43,2.86-.95,4.53,.48,1.67,1.43,2.86,3.1,3.34l51.03,20.27v44.59l5.01,5.01h88.94l3.58-1.43,49.36-49.36,23.61-2.39ZM28.09,88.44l34.34,13.59v10.49l-40.77-16.21,6.44-7.87Zm126.37,74.39H72.68v-44.59h60.8l15.98,20.74,6.2,1.43,34.1-16.21,3.58-.48-38.86,39.1Z"/></svg>