<?xml version="1.0" encoding="UTF-8"?><svg id="Layer_1" xmlns="http://www.w3.org/2000/svg" viewBox="0 0 250 250"><defs><style>.cls-1{fill:#ffd04e;}</style></defs><path class="cls-1" d="M176.48,179.71c-12.36,0-23.17,7.47-27.8,18.02H65.78l-11.33,12.62,11.84,12.62h5.92l5.15-5.41,5.15,5.41h5.41l1.54-2.32h4.63l2.83-3.09,6.44,4.38,4.12-1.8,3.6,2.32,5.66-4.38,9.53,7.98h4.12l5.15,4.12,8.24-7.21h4.63c4.89,10.56,15.45,18.02,27.8,18.02,16.99,0,30.64-13.64,30.64-30.64,.26-16.99-13.39-30.64-30.38-30.64h0Zm13.39,37.59c-3.86,0-7.21-3.35-7.21-7.21s3.35-7.21,7.21-7.21,7.21,3.35,7.21,7.21c0,4.12-3.09,7.21-7.21,7.21Z"/><path class="cls-1" d="M131.43,21.89c38.36,0,69.77,31.41,69.77,69.77s-31.41,69.77-69.77,69.77-69.77-31.41-69.77-69.77S93.07,21.89,131.43,21.89m0-12.87c-45.57,0-82.64,37.07-82.64,82.64s37.07,82.64,82.64,82.64,82.64-37.07,82.64-82.64S176.99,9.02,131.43,9.02Z"/><path class="cls-1" d="M69.64,76.21c12.1,1.54,21.37,9.53,21.37,19.31,0,9.27-7.98,16.73-19.05,19.05,3.6,9.27,9.27,17.51,16.48,23.94h9.01c8.5-6.95,20.6-11.33,33.98-11.33s25.49,4.38,33.98,11.33h9.01c7.21-6.44,12.87-14.68,16.48-23.94-10.81-2.32-19.05-9.78-19.05-19.05,0-9.78,9.27-18.02,21.37-19.31-1.03-4.63-2.83-9.01-4.89-13.13H74.53c-2.06,4.12-3.86,8.49-4.89,13.13h0Zm61.79-.26c8.75,0,15.7,6.95,15.7,15.7s-6.95,15.7-15.7,15.7-15.7-6.95-15.7-15.7,6.95-15.7,15.7-15.7Z"/></svg>