<?xml version="1.0" encoding="UTF-8"?><svg id="Layer_1" xmlns="http://www.w3.org/2000/svg" viewBox="0 0 250 250"><defs><style>.cls-1{fill:#ffd04e;}</style></defs><path class="cls-1" d="M241.74,105.79c-1.4-2.54-3.74-3.66-4.74-4.14-40-19.21-76.63-28.55-112-28.55s-72,9.34-111.99,28.55c-1,.48-3.35,1.6-4.75,4.14-1.19,2.17-1.47,4.68-.78,7.05l43.5,95.62c1.28,3.7,4.82,6.26,8.77,6.26,.87,0,1.93-.06,3.13-.55,28.07-11.64,40.67-14.38,62.12-14.38s34.05,2.73,62.15,14.39c1.17,.48,2.23,.54,3.1,.54,3.95,0,7.49-2.55,8.78-6.26l43.5-95.62c.69-2.38,.41-4.89-.78-7.05h0Zm-52.1,98.17c-26.51-10.89-40.64-14.57-64.64-14.57s-38.15,3.68-64.64,14.57l-19.6-43.02c4.87-2.43,7.71-7.65,9.93-11.75,2.59-4.78,4.33-7.68,6.69-7.68s4.1,2.9,6.69,7.68c3,5.54,7.11,13.12,15.84,13.12s12.84-7.59,15.84-13.12c2.59-4.78,4.33-7.68,6.69-7.68s4.11,2.9,6.7,7.68c3,5.54,7.11,13.12,15.84,13.12s12.83-7.59,15.83-13.12c2.58-4.78,4.32-7.68,6.69-7.68s4.11,2.9,6.7,7.68c3,5.54,7.11,13.12,15.84,13.12s12.85-7.59,15.85-13.12c2.59-4.78,4.33-7.68,6.71-7.68s4.11,2.9,6.71,7.68c2.22,4.1,5.07,9.32,9.95,11.75l-19.6,43.02Zm23.93-52.53c-1.65-.99-3.15-3.54-5.13-7.2-3-5.54-7.11-13.12-15.85-13.12s-12.85,7.59-15.85,13.12c-2.59,4.78-4.33,7.68-6.71,7.68s-4.11-2.9-6.7-7.68c-3-5.54-7.11-13.12-15.84-13.12s-12.84,7.59-15.84,13.13c-2.58,4.78-4.32,7.68-6.69,7.68s-4.11-2.9-6.7-7.68c-3-5.54-7.11-13.12-15.84-13.12s-12.84,7.59-15.84,13.13c-2.59,4.78-4.33,7.68-6.69,7.68s-4.1-2.9-6.69-7.68c-3-5.54-7.1-13.12-15.84-13.12s-12.84,7.59-15.84,13.12c-1.98,3.66-3.47,6.21-5.12,7.2l-18.49-40.6c38.39-18.38,73.42-27.32,107.07-27.32s68.68,8.93,107.07,27.32l-18.5,40.6Z"/><path class="cls-1" d="M125,115.83c-2.87,0-5.2,2.33-5.2,5.2v7.46c0,2.87,2.33,5.2,5.2,5.2s5.2-2.33,5.2-5.2v-7.46c0-2.87-2.33-5.2-5.2-5.2Z"/><path class="cls-1" d="M119.8,94.93v7.46c0,2.87,2.33,5.2,5.2,5.2s5.2-2.33,5.2-5.2v-7.46c0-2.87-2.33-5.2-5.2-5.2-2.87,0-5.2,2.33-5.2,5.2Z"/><path class="cls-1" d="M108.45,41.34c1.65,.82,3.18,1.86,4.56,3.1,1.11,.99,2.52,1.43,3.9,1.31,1.28-.11,2.52-.68,3.44-1.71,1.92-2.14,1.74-5.43-.39-7.34-2.07-1.86-4.39-3.44-6.87-4.68-2.57-1.28-5.69-.23-6.98,2.34-1.28,2.56-.24,5.69,2.34,6.97h0Z"/><path class="cls-1" d="M72.65,60.74c.44,.08,.87,.09,1.3,.05,2.31-.19,4.3-1.92,4.7-4.31,.31-1.84,.86-3.62,1.64-5.29,1.21-2.61,.07-5.7-2.54-6.91-2.6-1.21-5.7-.07-6.9,2.53-1.16,2.51-1.99,5.18-2.45,7.92-.48,2.83,1.43,5.51,4.26,6h0Z"/><path class="cls-1" d="M87.81,41.95c.66-.05,1.31-.23,1.93-.55,1.65-.84,3.41-1.46,5.21-1.82,2.82-.58,4.63-3.33,4.04-6.14-.58-2.82-3.34-4.6-6.15-4.05-2.72,.56-5.35,1.48-7.83,2.75-2.56,1.3-3.58,4.43-2.28,6.99,.99,1.94,3.03,2.99,5.07,2.83h0Z"/><path class="cls-1" d="M171.27,56.48c.4,2.39,2.38,4.13,4.7,4.31,.43,.03,.86,.02,1.3-.05,2.83-.48,4.74-3.17,4.25-6-.46-2.75-1.29-5.41-2.45-7.92-1.2-2.6-4.31-3.75-6.9-2.53-2.61,1.2-3.74,4.3-2.53,6.91,.77,1.67,1.32,3.45,1.63,5.29h0Z"/><path class="cls-1" d="M132.99,45.76c1.37,.11,2.79-.32,3.9-1.31,1.38-1.24,2.92-2.28,4.56-3.1,2.57-1.28,3.62-4.41,2.34-6.98-1.28-2.57-4.4-3.61-6.98-2.34-2.49,1.24-4.8,2.81-6.87,4.68-2.13,1.91-2.31,5.21-.39,7.34,.92,1.03,2.16,1.61,3.44,1.71h0Z"/><path class="cls-1" d="M154.96,39.58c1.8,.37,3.55,.98,5.21,1.82,.62,.32,1.28,.5,1.93,.55,2.05,.16,4.08-.88,5.06-2.83,1.3-2.56,.29-5.69-2.28-6.99-2.48-1.27-5.11-2.19-7.83-2.75-2.8-.55-5.56,1.23-6.15,4.05-.57,2.81,1.23,5.56,4.05,6.14h0Z"/><path class="cls-1" d="M119.8,54.88v7.46c0,2.87,2.33,5.2,5.2,5.2s5.2-2.33,5.2-5.2v-7.46c0-2.87-2.33-5.2-5.2-5.2s-5.2,2.33-5.2,5.2Z"/><path class="cls-1" d="M125,202.85c-2.87,0-5.2,2.33-5.2,5.2v7.46c0,2.87,2.33,5.2,5.2,5.2s5.2-2.33,5.2-5.2v-7.46c0-2.87-2.33-5.2-5.2-5.2Z"/></svg>