<?xml version="1.0" encoding="UTF-8"?><svg id="Layer_1" xmlns="http://www.w3.org/2000/svg" viewBox="0 0 250 250"><defs><style>.cls-1{fill:#ffd04e;}</style></defs><path class="cls-1" d="M50.61,71.29l-15.69-13.78c-.24,.48-7.84,8.79-14.5,22.82l18.78,9.03c5.47-11.17,11.41-17.83,11.41-18.07Z"/><path class="cls-1" d="M30.64,126.19c0-7.61,1.19-15.45,3.56-23.29l-19.96-5.94c-2.85,9.74-4.28,19.49-4.28,29.23,0,11.17,1.9,22.34,5.94,33.27l19.49-7.13c-3.09-8.56-4.75-17.35-4.75-26.14h0Z"/><path class="cls-1" d="M23.28,175.62c4.04,7.37,9.27,14.5,15.21,21.39l15.69-13.55c-4.99-5.94-9.51-11.88-12.83-18.06l-18.06,10.22Z"/><path class="cls-1" d="M230.76,81.27c-6.18-14.5-13.31-23.29-13.55-23.53l-16.16,13.31s5.7,6.89,10.46,18.54l19.25-8.32Z"/><path class="cls-1" d="M236.47,97.67l-20.2,5.23c1.9,7.37,2.85,14.74,2.85,22.34,0,8.79-1.43,17.83-4.04,26.62l19.96,6.18c3.33-10.69,4.99-21.87,4.99-32.8-.24-9.27-1.43-18.54-3.56-27.57h0Z"/><path class="cls-1" d="M198.2,184.18l16.88,12.12c5.23-7.37,9.74-14.97,13.31-22.34l-18.78-9.03c-3.09,6.66-6.89,13.07-11.41,19.25h0Z"/><path class="cls-1" d="M124.29,40.15c-46.82,0-84.85,38.03-84.85,84.85s38.03,84.85,84.85,84.85,84.85-38.03,84.85-84.85S171.11,40.15,124.29,40.15h0Zm0,155.91c-39.21,0-71.06-31.85-71.06-71.06S85.07,53.94,124.29,53.94s71.06,31.85,71.06,71.06-31.85,71.06-71.06,71.06Z"/></svg>