<?xml version="1.0" encoding="UTF-8"?><svg id="Layer_1" xmlns="http://www.w3.org/2000/svg" viewBox="0 0 250 250"><defs><style>.cls-1{fill:#ffd04e;}</style></defs><path class="cls-1" d="M159.91,158.3c-3.51,0-6.33,2.81-6.33,6.33v9.37c-63.02,28.35-116.9,7.5-130.49,1.17v-40.76c.47-19.44,10.78-40.3,27.88-56.23,11.95-11.24,25.77-17.57,35.61-17.1,23.9,1.41,37.95,14.99,38.19,15.23,2.58,2.58,6.56,2.34,8.9,0,2.58-2.58,2.58-6.56,0-8.9-.7-.7-17.34-17.1-46.62-18.74-13.35-.94-30.22,6.79-44.98,20.62-19.21,17.8-31.16,42.17-31.63,65.13v48.49l3.28,1.87c1.87,.94,30.69,16.87,72.86,16.63,22.26,0,48.26-4.45,75.9-17.57l3.51-1.64v-17.57c.23-3.52-2.58-6.33-6.09-6.33h0Z"/><path class="cls-1" d="M239.33,104.65c-.23-1.41-4.69-31.63-44.51-41.23h-29.75l-1.41,2.58c-.94,1.64-20.62,39.59,0,78.72l1.41,2.58h33.97c13.35-2.58,38.89-14.52,40.53-41.47v-.47l-.23-.7Zm-41.7,32.8h-26.94c-13.35-28.35-3.51-56.23,0-64.66h22.49c30.92,7.5,35.84,29.28,36.55,32.56-1.64,24.6-28.35,31.39-32.1,32.1h0Z"/><path class="cls-1" d="M104.38,92.47c-6.09-4.22-14.06-7.03-23.9-7.5-55.76-2.11-45.68,80.36-45.68,80.36,0,0,4.69,12.42,46.15,11.71,28.82-.47,39.36-5.86,43.34-9.14,.94,.47,1.87,.7,2.81,.7s1.64-.23,2.58-.47l24.83-10.78c3.28-1.41,4.69-5.15,3.28-8.43s-5.15-4.69-8.43-3.28l-22.49,9.84v-9.84c.7,0,1.41-.23,2.34-.47l20.62-9.61c3.28-1.41,4.45-5.15,3.05-8.43-1.41-3.28-5.15-4.69-8.43-3.05l-18.74,8.67c-.7-4.22-1.64-8.43-2.81-12.65h.47l24.13-11.24c3.28-1.41,4.69-5.15,3.28-8.43-1.41-3.28-5.15-4.69-8.43-3.28l-24.13,10.78c-1.17-2.34-2.58-4.45-4.22-6.56l33.74-14.76c3.28-1.41,4.69-5.15,3.28-8.43-1.41-3.28-5.15-4.69-8.43-3.28l-35.61,15.7c-1.17,.47-1.87,1.17-2.58,1.87h0Z"/></svg>