<?xml version="1.0" encoding="UTF-8"?><svg id="Layer_1" xmlns="http://www.w3.org/2000/svg" viewBox="0 0 250 250"><defs><style>.cls-1{fill:#be1622;}</style></defs><path class="cls-1" d="M191.3,127.51c-22.11,0-40.84,14.31-47.55,34.16H28.56l-20.09,20.09,20.09,20.09,24.11-20.09,10.05,12.05,10.05-12.05,10.05,12.05,10.05-12.05,10.05,12.05,10.04-12.05,10.05,11.38h20.51c6.5,20.2,25.43,34.83,47.8,34.83,27.74,0,50.23-22.49,50.23-50.23,0-27.74-22.49-50.23-50.23-50.23h0Zm24.11,60.27c-5.55,0-10.05-4.5-10.05-10.05s4.5-10.05,10.05-10.05,10.05,4.5,10.05,10.05-4.5,10.05-10.05,10.05Z"/><path class="cls-1" d="M125,122.49c27.7,0,50.23-22.53,50.23-50.23s-22.53-50.23-50.23-50.23-50.23,22.53-50.23,50.23,22.53,50.23,50.23,50.23Zm0-90.41c22.16,0,40.18,18.02,40.18,40.18s-18.03,40.18-40.18,40.18-40.18-18.02-40.18-40.18,18.02-40.18,40.18-40.18Z"/><path class="cls-1" d="M117.97,71.18v28.2h14.06v-28.2c3.62-2.32,6.03-6.36,6.03-10.97,0-7.21-5.84-13.06-13.06-13.06s-13.06,5.84-13.06,13.06c0,4.62,2.41,8.66,6.03,10.97Z"/></svg>