<?xml version="1.0" encoding="UTF-8"?><svg id="Layer_1" xmlns="http://www.w3.org/2000/svg" viewBox="0 0 250 250"><defs><style>.cls-1{fill:#e25832;}</style></defs><path class="cls-1" d="M235.17,97.85l-14.95-13.57c-2.76-2.53-6.9-2.53-9.66,0l-11.27,9.89-6.21-9.66c-1.38-2.07-3.68-3.22-5.98-3.22h-23.69v-13.11c0-3.91-3.22-7.13-7.13-7.13h-22.08v-4.14c0-.23-.23-.69-.23-.92h18.17c3.91,0,7.13-3.22,7.13-7.13s-3.22-7.13-7.13-7.13H82.65c-3.91,0-7.13,3.22-7.13,7.13s3.22,7.13,7.13,7.13h18.63c0,.23-.23,.69-.23,.92v5.98h-20.7c-1.15,0-2.3,.23-3.22,.69l-10.58,5.29h-26.46c-3.91,0-7.13,3.22-7.13,7.13v46.7h-5.98v-46.93c0-3.91-3.22-7.13-7.13-7.13s-7.13,3.22-7.13,7.13v107.66c0,3.91,3.22,7.13,7.13,7.13s7.13-3.22,7.13-7.13v-46.47h5.98v49.23c0,3.91,3.22,7.13,7.13,7.13h34.05l21.62,13.8c1.15,.69,2.53,1.15,3.91,1.15h91.56c3.91,0,7.13-3.22,7.13-7.13v-16.79h1.84v14.03c0,3.91,3.22,7.13,7.13,7.13h13.11c2.76,0,5.06-1.38,6.44-3.91l9.43-17.71c.46-1.15,.92-2.3,.92-3.45V103.15c.23-2.07-.69-3.91-2.07-5.29h0Zm-12.19,81.2l-6.44,12.19h-1.61v-14.03c0-3.91-3.22-7.13-7.13-7.13h-16.33c-3.91,0-7.13,3.22-7.13,7.13v16.79H101.98l-21.62-13.8c-1.15-.69-2.53-1.15-3.91-1.15h-28.98V83.13h20.7c1.15,0,2.3-.23,3.22-.69l10.58-5.29h26.22c3.91,0,7.13-3.22,7.13-7.13v-5.98h4.14v4.14c0,3.91,3.22,7.13,7.13,7.13h22.08v13.11c0,3.91,3.22,7.13,7.13,7.13h26.68l8.74,13.34c1.15,1.84,2.99,2.99,5.06,3.22,2.07,.23,4.14-.23,5.75-1.61l12.65-11.04,7.82,7.13v72.46h.46Z"/></svg>