<?xml version="1.0" encoding="UTF-8"?><svg id="Layer_1" xmlns="http://www.w3.org/2000/svg" viewBox="0 0 250 250"><defs><style>.cls-1{fill:#be1622;}</style></defs><path class="cls-1" d="M101.76,152.62h-25.31c-1.7,0-3.41,.73-4.62,2.19-1.22,1.46-1.7,3.16-1.7,4.87,0,0,.97,11.44-4.87,18.25-2.92,3.41-7.06,5.35-12.66,5.6-4.62,.24-8.03-.73-10.46-3.41-5.35-5.6-5.11-17.52-4.62-21.66,.24-1.7-.24-3.65-1.46-5.11-1.22-1.46-2.92-2.19-4.87-2.19h-11.93l.49-7.06,16.55-9h24.09c1.22,0,2.68-.49,3.65-1.22l41.37-29.93c2.92-1.95,3.41-6.08,1.46-9-1.95-2.92-6.08-3.41-9-1.46l-39.67,29.2h-23.85c-.97,0-2.19,.24-2.92,.73l-20.93,11.44c-1.95,.97-3.16,2.92-3.41,5.11l-.97,17.52c0,1.7,.49,3.41,1.7,4.62,1.22,1.22,2.92,1.95,4.62,1.95h12.17c.24,7.06,1.7,17.52,8.52,24.82,3.16,3.41,9,7.3,18.25,7.3h2.43c9-.73,16.31-4.14,21.42-10.22,5.6-6.57,7.3-14.85,7.79-20.69h18.98c3.41,0,6.33-2.92,6.33-6.33,0-3.41-2.93-6.33-6.58-6.33h0Z"/><path class="cls-1" d="M237.56,116.85h-13.63l-34.32-28.96c-1.22-.97-2.68-1.46-4.14-1.46h-11.68c-3.41,0-6.33,2.92-6.33,6.33s2.92,6.33,6.33,6.33h9.25l34.56,28.96c1.22,.97,2.68,1.46,4.14,1.46h9.49v23.85h-10.71c-1.7,0-3.41,.73-4.62,1.95-1.22,1.22-1.95,2.92-1.7,4.62,0,3.16-.73,12.41-5.84,17.52-2.43,2.43-5.84,3.89-10.22,3.89-4.14,0-7.3-1.22-9.49-3.65-4.38-4.87-4.62-14.12-4.38-17.28,.24-1.7-.49-3.65-1.7-4.87-1.22-1.22-2.92-2.19-4.62-2.19h-13.87c-3.41,0-6.33,2.92-6.33,6.33s2.92,6.33,6.33,6.33h7.54c.49,5.84,2.19,13.87,7.54,19.96,4.62,5.11,11.2,7.79,18.98,7.79s14.36-2.68,19.23-7.79c5.84-6.08,8.03-14.36,9-20.2h11.2c3.41,0,6.33-2.92,6.33-6.33v-36.51c0-3.16-2.92-6.08-6.33-6.08h0Z"/><path class="cls-1" d="M149.7,39.7h-34.56l23.85,24.09-9.74,9.73-24.09-24.34-3.41,34.07,16.06,16.31-1.22,110.73h35.05V97.86l19.96-27.26-21.9-30.91Z"/></svg>