<?xml version="1.0" encoding="UTF-8"?><svg id="Layer_1" xmlns="http://www.w3.org/2000/svg" viewBox="0 0 250 250"><defs><style>.cls-1{fill:#e25832;}</style></defs><path class="cls-1" d="M98.43,38.2c-47.81,0-86.8,38.99-86.8,86.8s38.99,86.8,86.8,86.8,86.8-38.99,86.8-86.8c0-47.81-38.99-86.8-86.8-86.8Zm0,16.25c28.31,0,52.68,16.71,63.82,40.85H34.6c11.14-24.14,35.51-40.85,63.82-40.85Zm40.15,75.43c.93-17.17,17.87-19.73,28.78-19.73,1.16,4.87,1.63,9.75,1.63,15.08,0,10.21-2.09,19.73-6.03,28.31-9.98-1.62-25.07-6.73-24.37-23.67h0Zm-104.9,23.67c-3.71-8.82-5.8-18.33-5.8-28.55,0-5.11,.46-9.98,1.63-14.85,11.14,0,29.47,2.78,31.56,19.73,1.86,16.71-16.01,22.05-27.39,23.67h0Zm20.89,26.69c7.43-6.27,22.05-15.55,43.86-15.78,21.82-.23,37.6,8.12,45.95,13.93-12.3,10.68-28.31,17.17-45.95,17.17-16.71,0-31.79-5.57-43.86-15.32h0Z"/><path class="cls-1" d="M233.03,154.24l5.34-114.65h-37.37l5.57,114.65h26.46Z"/><path class="cls-1" d="M235.59,188.59c0,8.46-6.86,15.32-15.32,15.32s-15.32-6.86-15.32-15.32,6.86-15.32,15.32-15.32,15.32,6.86,15.32,15.32"/></svg>