<?xml version="1.0" encoding="UTF-8"?><svg id="Layer_1" xmlns="http://www.w3.org/2000/svg" viewBox="0 0 250 250"><defs><style>.cls-1{fill:#e25832;}</style></defs><path class="cls-1" d="M17.96,159.63h29.51l7.26-21.55H195.5l9.84,21.55h26.7c4.45,0,7.96-3.51,7.96-7.96s-3.51-7.96-7.96-7.96h-16.63l-9.84-21.55H43.26l-7.26,21.55H17.96c-4.45,0-7.96,3.51-7.96,7.96s3.51,7.96,7.96,7.96h0Z"/><path class="cls-1" d="M232.04,175.09h-26.7l-9.84,21.55H54.74l-7.26-21.55H17.96c-4.45,0-7.96,3.51-7.96,7.96s3.51,7.96,7.96,7.96h18.04l7.26,21.55H205.57l9.84-21.55h16.63c4.45,0,7.96-3.51,7.96-7.96,0-4.45-3.51-7.96-7.96-7.96h0Z"/><path class="cls-1" d="M55.44,94.29c3.98,2.58,10.07,6.56,10.31,8.2-.47,1.41-5.15,5.39-9.6,8.2-1.87,1.17-2.34,3.51-1.17,5.39,.7,1.17,2.11,1.87,3.28,1.87,.7,0,1.41-.23,2.11-.7,6.32-3.98,13.82-9.84,13.35-15.22-.7-5.86-7.03-10.07-14.05-14.52-3.75-2.34-10.54-6.79-10.31-8.67,.23-1.64,5.62-5.39,8.67-7.26,6.09-3.98,12.18-7.96,12.18-14.05,0-7.03-12.41-15.93-17.57-19.44-1.64-1.17-4.22-.7-5.39,1.17-1.17,1.87-.7,4.22,1.17,5.39,7.03,4.68,13.82,10.77,14.05,12.88,0,1.64-5.86,5.39-8.67,7.26-5.86,3.98-11.71,7.73-12.18,13.12-.7,7.03,6.79,11.71,13.82,16.4h0Z"/><path class="cls-1" d="M120.32,94.29c3.98,2.58,10.07,6.56,10.31,8.2-.47,1.41-5.15,5.39-9.6,8.2-1.87,1.17-2.34,3.51-1.17,5.39,.7,1.17,2.11,1.87,3.28,1.87,.7,0,1.41-.23,2.11-.7,6.32-3.98,13.82-9.84,13.35-15.22-.7-5.86-7.03-10.07-14.05-14.52-3.75-2.34-10.54-6.79-10.31-8.67,.23-1.64,5.62-5.39,8.67-7.26,6.09-3.98,12.18-7.96,12.18-14.05,0-7.03-12.41-15.93-17.8-19.44-1.87-1.17-4.22-.7-5.39,1.17-1.17,1.87-.7,4.22,1.17,5.39,7.03,4.68,13.82,10.77,14.05,12.88,0,1.64-5.86,5.39-8.67,7.26-5.86,3.98-11.71,7.73-12.18,13.12-.47,7.03,6.79,11.71,14.05,16.39h0Z"/><path class="cls-1" d="M186.13,94.29c3.98,2.58,10.07,6.56,10.31,8.2-.47,1.41-5.15,5.39-9.6,8.2-1.87,1.17-2.34,3.51-1.17,5.39,.7,1.17,2.11,1.87,3.28,1.87,.7,0,1.41-.23,2.11-.7,6.32-3.98,13.82-9.84,13.35-15.22-.7-5.86-7.03-10.07-14.05-14.52-3.75-2.34-10.54-6.79-10.31-8.67,.23-1.64,5.62-5.39,8.67-7.26,6.09-3.98,12.18-7.96,12.18-14.05,0-7.03-12.41-15.93-17.57-19.44-1.87-1.17-4.22-.7-5.62,1.17-1.17,1.87-.7,4.22,1.17,5.39,7.03,4.68,13.82,10.77,14.05,12.88,0,1.64-5.86,5.39-8.67,7.26-5.86,3.98-11.71,7.73-12.18,13.12-.47,7.03,6.79,11.71,14.05,16.39h0Z"/></svg>