<?xml version="1.0" encoding="UTF-8"?><svg id="Layer_1" xmlns="http://www.w3.org/2000/svg" viewBox="0 0 223.94 223.7"><defs><style>.cls-1{fill:#ffd04e;}</style></defs><path class="cls-1" d="M111.97,134.7c5.79,0,10.48-4.68,10.48-10.48V62.49c0-5.79-4.68-10.48-10.48-10.48s-10.48,4.68-10.48,10.48v61.74c-.22,5.79,4.68,10.48,10.48,10.48Z"/><path class="cls-1" d="M125.12,154.76c0,7.26-5.89,13.15-13.15,13.15s-13.15-5.89-13.15-13.15,5.89-13.15,13.15-13.15,13.15,5.89,13.15,13.15"/><path class="cls-1" d="M214.05,149.41c4.46-12.03,6.69-24.52,6.69-37.44h-19.39v-1.34c0-3.79-.22-7.58-.89-11.14l19.17-2.68c-1.78-12.7-5.79-24.74-11.81-36.11l-16.72,8.91c-2.45-4.68-5.35-9.14-8.69-13.15l14.71-11.59c-8.02-10.03-17.38-18.5-28.31-25.19l-9.81,16.05c-4.46-2.67-9.14-5.13-14.04-7.13l6.91-17.38c-11.59-5.13-24.29-7.8-37-8.02l-.45,18.95h-1.34c-4.9,0-9.58,.45-14.26,1.34l-2.9-18.95c-12.7,1.78-24.74,6.02-36.11,12.03l9.58,17.38c-4.46,2.67-8.91,5.57-12.93,8.91l-12.48-15.6c-10.03,8.02-18.5,17.61-24.96,28.53l17.61,10.7c-2.67,4.46-4.68,9.14-6.46,14.04l-19.61-7.58c-4.68,11.81-7.13,24.52-7.35,37.22l21.4,.45v.22c0,5.13,.45,10.03,1.34,14.93l-21.4,3.34c2.01,12.48,6.02,24.52,12.26,35.88l19.17-10.7c2.45,4.46,5.35,8.69,8.69,12.48l-16.94,13.82c8.02,9.81,17.83,18.28,28.75,24.74l11.37-18.95c4.24,2.67,8.91,4.9,13.6,6.69l-7.8,20.5c12.03,4.46,24.52,6.91,37.44,6.91l.22-21.62h1.78c4.68,0,9.14-.45,13.37-1.11l3.57,21.17c12.7-2.01,24.74-6.46,35.88-12.7l-10.47-18.05c4.46-2.45,8.69-5.35,12.7-8.69l13.37,16.05c9.81-8.25,18.05-17.83,24.52-28.97l-17.61-10.03c2.67-4.46,4.9-9.14,6.91-14.04l18.72,6.91Zm-101.19,32.76c-39.45,0-71.54-32.09-71.54-71.54S73.41,39.08,112.86,39.08s71.54,32.09,71.54,71.54c0,39.45-31.87,71.54-71.55,71.54h0Z"/></svg>