<?xml version="1.0" encoding="UTF-8"?><svg id="Layer_1" xmlns="http://www.w3.org/2000/svg" viewBox="0 0 250 250"><defs><style>.cls-1{fill:#ffd04e;}</style></defs><path class="cls-1" d="M118.93,58.12c-7.74-5.61-15.49-5.07-15.49-5.07l27.24,33.11s-4,13.62,3.74,17.35v63.55c0,5.34-2.94,9.88-6.41,9.88h-5.34c-3.47,0-6.41-4.54-6.41-9.88v-37.38c0-9.88-6.14-18.16-14.15-19.76V62.92c0-7.48-6.14-13.35-13.35-13.35H32.69c-7.48,0-13.35,6.14-13.35,13.35v122.29c-4,2.14-6.94,6.14-6.94,10.95v4.27H107.72v-4.27c0-4.27-2.14-8.01-5.61-10.41,0-.53,.27-1.07,.27-1.34v-63.55c2.4,1.6,4.01,5.07,4.01,9.08v37.38c0,10.95,7.48,20.03,16.55,20.03h5.34c9.08,0,16.55-9.08,16.55-20.03V101.9c5.34-6.14,3.21-22.7-25.9-43.79h0Zm-32.31,52.07c0,1.87-1.6,3.47-3.47,3.47H37.5c-1.87,0-3.47-1.6-3.47-3.47v-41.92c0-1.87,1.6-3.47,3.47-3.47h45.66c1.87,0,3.47,1.6,3.47,3.47v41.92Z"/><path class="cls-1" d="M177.94,67.19c-9.61,7.74-12.55,18.69-7.21,25.1,6.14,5.34,17.35,2.4,25.1-7.21,6.14-7.74,8.28-17.35,6.14-24.03-6.68-2.14-16.29,0-24.03,6.14h0Z"/><path class="cls-1" d="M236.68,90.16c-6.68-2.4-16.29,0-24.03,6.14-9.61,7.74-12.55,18.69-7.21,25.1,6.14,5.34,17.35,2.4,25.1-7.21,6.14-7.74,8.54-17.35,6.14-24.03h0Z"/><path class="cls-1" d="M160.59,120.6c-9.61,7.74-12.55,18.69-7.21,25.1,6.14,5.34,17.35,2.4,25.1-7.21,6.14-7.74,8.28-17.35,6.14-24.03-6.67-2.14-16.29,0-24.03,6.14h0Z"/></svg>