<?xml version="1.0" encoding="UTF-8"?><svg id="Layer_1" xmlns="http://www.w3.org/2000/svg" viewBox="0 0 250 250"><defs><style>.cls-1{fill:#c5c5c5;}.cls-2{fill:#fff;}</style></defs><path class="cls-1" d="M97.77,102.83c27.11,0,49.17-22.06,49.17-49.17S124.88,4.49,97.77,4.49,48.6,26.55,48.6,53.66s22.06,49.17,49.17,49.17Z"/><path class="cls-1" d="M115.17,143.54c-3.01-3.47-7.18-5.33-11.82-5.33h-11.82c-4.63,0-8.81,2.08-11.82,5.33L23.19,209.34c-5.56,6.49-4.87,16.45,1.62,22.01,3.01,2.55,6.72,3.71,10.2,3.71,4.4,0,8.81-1.85,11.82-5.33l50.74-58.62,12.05,13.67c5.79,6.49,15.52,7.18,22.01,1.39,6.49-5.79,7.18-15.52,1.39-22.01l-17.84-20.62Z"/><path class="cls-1" d="M145.99,122.45c-2.08-5.56-8.34-8.11-13.9-6.02-5.56,2.08-8.11,8.34-6.02,13.9l40.08,100.33c1.62,4.17,5.79,6.72,9.96,6.72,1.39,0,2.78-.23,3.94-.69,5.56-2.08,8.11-8.34,6.02-13.9l-40.08-100.33Z"/><path class="cls-1" d="M214.11,83.29c-6.95-5.33-16.68-3.94-22.01,2.78l-31.51,41.24c-5.33,6.95-3.94,16.68,2.78,22.01,2.78,2.08,6.26,3.24,9.5,3.24,4.63,0,9.27-2.08,12.51-6.02l31.51-41.24c5.56-6.95,4.17-16.68-2.78-22.01h0Z"/><path class="cls-1" d="M204.61,13.32c-14.37,0-25.95,11.59-25.95,25.95s11.59,25.95,25.95,25.95,25.95-11.59,25.95-25.95-11.59-25.95-25.95-25.95Z"/><path class="cls-2" d="M138.83,82.29l-28.63-28.63,28.63-28.63c-3.52-4.93-7.98-9.38-12.91-12.67l-28.62,28.39-27.69-27.69c-4.93,3.52-9.38,7.98-12.67,12.91l27.69,27.69-27.92,27.69c3.28,5.16,7.74,9.38,12.67,12.91l27.92-27.92,28.63,28.63c5.16-3.28,9.39-7.51,12.91-12.67h0Z"/></svg>