<?xml version="1.0" encoding="UTF-8"?><svg id="Layer_1" xmlns="http://www.w3.org/2000/svg" viewBox="0 0 250 250"><defs><style>.cls-1{fill:#be1622;}</style></defs><path class="cls-1" d="M228.11,198.57c-9.36,8.68-25.12,21.01-31.05,21.01-3.65,0-9.82-5.02-15.3-9.59-7.08-5.94-13.7-11.42-20.32-11.42s-13.47,5.48-20.55,11.42c-5.48,4.57-11.64,9.59-15.53,9.59-3.65,0-9.82-5.48-15.07-10.05-7.08-6.17-13.7-12.1-20.32-12.1s-13.7,5.94-21.01,12.1c-5.71,4.8-11.87,10.05-15.76,10.05-5.94,0-22.61-11.87-32.42-20.09-1.6-1.37-4.34-1.14-5.71,.46s-1.14,4.34,.46,5.71c4.34,3.65,26.49,21.92,37.67,22.15,6.85,0,13.7-5.94,21.01-12.1,5.71-4.8,12.1-10.27,15.98-10.05,3.65,0,9.82,5.48,15.07,10.05,7.08,6.17,13.7,11.87,20.32,12.1,6.62-.23,13.7-5.48,20.78-11.42,5.48-4.57,11.64-9.59,15.53-9.59,3.65,0,9.82,5.02,15.3,9.59,7.08,5.94,13.93,11.42,20.55,11.42h.23c10.96-.23,32.2-19.41,36.31-23.29,1.6-1.6,1.83-4.11,.23-5.71-2.05-1.83-4.79-1.83-6.39-.23h0Z"/><path class="cls-1" d="M53.44,198.57h.46c10.96-.46,30.83-20.32,34.71-24.43,1.6-1.6,1.6-4.11,0-5.71s-4.11-1.6-5.71,0c-8.68,8.91-23.52,21.69-29.23,21.92-5.94,.46-23.52-11.64-33.79-20.55-1.6-1.37-4.34-1.14-5.71,.46-1.37,1.6-1.14,4.34,.46,5.71,4.57,3.88,27.17,22.6,38.82,22.6h0Z"/><path class="cls-1" d="M235.65,168.88c-1.37-1.6-3.88-1.83-5.71-.46-10.05,8.68-26.94,20.78-33.11,20.78s-21.92-12.1-31.28-20.55c-1.6-1.6-4.11-1.37-5.71,.23-1.6,1.6-1.37,4.11,.23,5.71,4.11,3.88,25.57,22.61,36.76,22.61h.23c11.42,0,34.02-18.95,38.36-22.61,1.6-1.6,1.83-4.11,.23-5.71h0Z"/><path class="cls-1" d="M124.45,191.95c13.02,0,23.75-10.73,23.75-23.75,0-7.76-3.65-14.39-9.36-18.72l-.23-14.39h22.83c3.42,0,5.94-2.74,5.94-5.94,0-3.42-2.74-5.94-5.94-5.94h-22.83l-.23-22.83h23.29c3.42,0,5.94-2.74,5.94-5.94,0-3.42-2.74-5.94-5.94-5.94h-23.52l-.23-14.84h23.75c3.42,0,5.94-2.74,5.94-5.94s-2.74-5.94-5.94-5.94h-23.75l-.46-24.43c-.91-6.39-3.42-10.96-6.85-13.24-3.88-2.51-7.54-1.83-7.54-1.83-9.36,.23-12.79,10.05-13.24,15.3v111.88c-5.48,4.34-8.91,10.96-8.91,18.49,0,13.25,10.5,23.98,23.52,23.98h0Z"/></svg>