<?xml version="1.0" encoding="UTF-8"?><svg id="Layer_1" xmlns="http://www.w3.org/2000/svg" viewBox="0 0 250 250"><defs><style>.cls-1{fill:#be1622;}</style></defs><path class="cls-1" d="M125.02,44.43c-44.5,0-80.57,36.07-80.57,80.57s36.07,80.57,80.57,80.57,80.57-36.07,80.57-80.57S169.51,44.43,125.02,44.43Zm0,14.65c36.41,0,65.92,29.52,65.92,65.92s-29.52,65.92-65.92,65.92-65.92-29.52-65.92-65.92S88.61,59.08,125.02,59.08h0Zm-86.59-1.72c2.49-3.19,7.1-3.75,10.28-1.26,3.19,2.49,3.75,7.1,1.26,10.28-13,16.62-20.17,37.06-20.17,58.61s7.13,41.87,20.05,58.46c2.48,3.19,1.91,7.79-1.28,10.28-3.19,2.48-7.79,1.91-10.28-1.28-14.91-19.14-23.14-42.68-23.14-67.46s8.28-48.47,23.28-67.64h0Zm162.86-1.26c3.19-2.49,7.79-1.93,10.28,1.26,15,19.17,23.28,42.79,23.28,67.64s-8.23,48.32-23.14,67.46c-2.49,3.19-7.09,3.76-10.28,1.28-3.19-2.49-3.76-7.09-1.28-10.28,12.92-16.59,20.05-36.97,20.05-58.46s-7.17-41.99-20.17-58.61c-2.49-3.19-1.93-7.79,1.26-10.28h0Zm-39.78,51.35c4.61,0,8.07,1.01,10.4,3.03,2.33,2.02,3.55,4.71,3.67,8.09l-7.41,.33c-.32-1.89-1-3.24-2.04-4.07-1.04-.83-2.61-1.24-4.69-1.24s-3.84,.44-5.06,1.33c-.78,.57-1.18,1.33-1.18,2.28,0,.87,.37,1.61,1.1,2.23,.94,.78,3.21,1.6,6.81,2.45,3.61,.85,6.27,1.73,8,2.64,1.73,.91,3.08,2.15,4.05,3.73,.98,1.58,1.47,3.53,1.47,5.85,0,2.1-.59,4.07-1.75,5.91-1.17,1.84-2.82,3.2-4.96,4.09-2.14,.89-4.8,1.34-7.99,1.34-4.64,0-8.2-1.07-10.69-3.22-2.49-2.15-3.97-5.27-4.46-9.38l7.21-.7c.43,2.42,1.31,4.2,2.64,5.33,1.33,1.14,3.12,1.7,5.37,1.7,2.39,0,4.18-.51,5.4-1.51,1.21-1.01,1.81-2.19,1.81-3.54,0-.87-.26-1.61-.76-2.21-.51-.61-1.4-1.14-2.67-1.59-.87-.3-2.84-.84-5.93-1.6-3.97-.98-6.76-2.19-8.36-3.63-2.25-2.02-3.38-4.48-3.38-7.38,0-1.87,.53-3.62,1.59-5.25,1.06-1.63,2.58-2.87,4.58-3.72,1.99-.85,4.4-1.28,7.22-1.28h0Zm-68.5,.63l14.69,36.7h-8.06l-3.21-8.34h-14.67l-3.03,8.34h-7.86l14.3-36.7h7.84Zm33.32,0c2.9,0,5.07,.12,6.5,.36,1.43,.24,2.71,.75,3.83,1.51s2.06,1.79,2.82,3.07c.75,1.28,1.13,2.71,1.13,4.29,0,1.72-.46,3.3-1.39,4.73-.92,1.43-2.18,2.51-3.77,3.23,2.24,.65,3.96,1.76,5.16,3.33,1.2,1.57,1.8,3.41,1.8,5.53,0,1.67-.39,3.29-1.16,4.87-.77,1.58-1.84,2.84-3.18,3.78-1.34,.94-3,1.52-4.97,1.74-1.23,.13-4.21,.22-8.94,.25h-12.49v-36.7h14.67Zm-1.28,20.7h-5.98v9.81h6.86c2.67,0,4.36-.08,5.08-.23,1.1-.2,2-.69,2.69-1.47,.69-.77,1.04-1.81,1.04-3.11,0-1.1-.27-2.04-.8-2.81-.53-.77-1.3-1.33-2.32-1.68s-3.2-.52-6.57-.52h0Zm-36.05-12.14l-4.96,13.62h10.01l-5.06-13.62Zm35.57-2.45h-5.5v8.49h4.86c2.89,0,4.68-.04,5.38-.13,1.27-.15,2.27-.59,2.99-1.31s1.09-1.68,1.09-2.87-.31-2.06-.94-2.77c-.63-.71-1.56-1.14-2.79-1.29-.64-.07-2.34-.11-5.09-.12h0Z"/></svg>